<?xml version="1.0" encoding="utf-8"?>
<!-- Generator: Adobe Illustrator 25.2.0, SVG Export Plug-In . SVG Version: 6.00 Build 0)  -->
<svg version="1.1" id="Layer_1" xmlns="http://www.w3.org/2000/svg" xmlns:xlink="http://www.w3.org/1999/xlink" x="0px" y="0px"
	 viewBox="0 0 4535.4 3401.6" style="enable-background:new 0 0 4535.4 3401.6;" xml:space="preserve">
<style type="text/css">
	.st0{fill:#F2959C;}
</style>
<path class="st0" d="M1254.5,2455.9c-52,1.5-81.8,13.4-113.8,46.9c-8.9,9.6-11.9,7.4-18.6-2.3l-19.3-29.7c-2.3-4.5-5.9-6.7-11.1-6.7
	h-52.8c-5.9,0-9.6,3.7-9.6,9.6v345.7c0,5.9,3.7,9.7,9.6,9.7h98.9c5.9,0,9.6-3.8,9.6-9.7v-60.2c0-148.7,25.3-194.8,107.1-198.5
	c6.6,0,9.6-3,9.6-9.7v-85.5C1264.1,2459.5,1260.5,2455.9,1254.5,2455.9z"/>
<path class="st0" d="M1611.3,2728.6c-1.5-5.9-5.3-8.1-11.2-6.7l-44.6,9.7c-10.4,2.3-32,5.2-47.5,5.2c-35,0-53.6-11.1-67.7-37.2
	l87-12.6c85.4-11.9,127.1-46.1,127.1-105.6c0-76.6-57.2-125.6-150.2-125.6c-116.7,0-184.3,73.6-184.3,191
	c0,116.7,66.2,190.3,188.1,190.3c19.3,0,44.6-2.2,70.6-8.1l46-11.1c6-1.5,9-5.3,7.4-12L1611.3,2728.6z M1499.8,2556.2
	c29.7,0,44.6,9,44.6,26.8c0,16.4-11.1,26.8-34.2,29l-77.3,11.9C1435.1,2577,1467.8,2556.2,1499.8,2556.2z"/>
<path class="st0" d="M2064,2464.1h-101.8c-5.3,0-9,2.2-11.2,7.4l-22.3,62.5c-20.1,53.5-35,111.5-40.9,156.1
	c-1.5,9.7-11.9,9.7-13.4,0c-7.4-44.6-22.3-101.8-41.6-156.1l-22.3-62.5c-2.3-5.2-5.9-7.4-11.1-7.4h-101.8c-7.4,0-10.5,4.4-7.4,11.1
	l51.3,136.1c27.5,75.1,54.2,153.9,69.9,209.6c1.5,5.2,5.2,8.2,10.4,8.2h119c5.2,0,9-3,10.4-8.2c15.6-56.5,42.4-136.1,69.9-209.6
	l50.6-136.1C2074.4,2468.5,2071.5,2464.1,2064,2464.1z"/>
<path class="st0" d="M2278.8,2819.4c0,6-3.7,9.7-9.7,9.7H2171c-5.9,0-9.7-3.7-9.7-9.7v-252h-38.7c-5.9,0-9.7-3.7-9.7-9.7v-84
	c0-5.9,3.7-9.7,9.7-9.7h146.5c6,0,9.7,3.7,9.7,9.7V2819.4z"/>
<path class="st0" d="M2637.8,2728.6c-1.4-5.9-5.2-8.1-11.1-6.7l-44.6,9.7c-10.4,2.3-32,5.2-47.6,5.2c-34.9,0-53.5-11.1-67.6-37.2
	l86.9-12.6c85.5-11.9,127.2-46.1,127.2-105.6c0-76.6-57.2-125.6-150.2-125.6c-116.7,0-184.3,73.6-184.3,191
	c0,116.7,66.1,190.3,188,190.3c19.3,0,44.7-2.2,70.6-8.1l46.1-11.1c5.9-1.5,9-5.3,7.4-12L2637.8,2728.6z M2526.3,2556.2
	c29.7,0,44.6,9,44.6,26.8c0,16.4-11.1,26.8-34.2,29l-77.3,11.9C2461.7,2577,2494.4,2556.2,2526.3,2556.2z"/>
<path class="st0" d="M3279.4,2464.1h-98.9c-5.9,0-9.6,2.9-11.1,8.1l-17.1,71.4c-15.6,63.9-23.1,99.7-31.2,150.2
	c-1.5,9.6-11.2,9.6-13.4,0c-11.1-50.5-28.3-110.8-44.6-170.3l-14.1-51.3c-1.5-5.2-5.2-8.1-10.4-8.1h-66.2c-5.9,0-9.7,2.9-11.1,8.1
	l-13.4,51.3c-16.4,61.8-33.5,119.7-44.6,170.3c-2.3,9.6-12.6,9.6-14.1,0c-9-50.5-17.2-90-31.2-150.2l-17.2-71.4
	c-1.4-5.2-5.2-8.1-11.1-8.1h-98.8c-6.7,0-9.7,4.4-8.2,11.1l51.3,183.6c20.8,76.6,30.5,110,42.3,162.1c1.5,5.2,5.2,8.2,11.1,8.2
	h121.9c6,0,9.7-3,11.2-8.2c4.4-20.8,8.9-39.4,15.6-63.9l8.2-30.5c3.7-14.9,11.1-49.1,15.6-68.4c2.2-9.6,8.1-9.6,10.4,0
	c4.4,18.6,11.9,51.3,16.3,68.4l8.2,30.5l15.6,63.9c1.4,5.2,5.2,8.2,11.1,8.2h121.9c5.9,0,9.6-3,11.1-8.2
	c11.9-52,21.6-86.9,42.4-162.1l50.5-183.6C3289.1,2468.5,3286.1,2464.1,3279.4,2464.1z"/>
<polygon class="st0" points="2195.8,2171.1 2223.6,2256.5 2313.4,2256.5 2240.7,2309.3 2268.5,2394.6 2195.8,2341.9 2123.2,2394.6 
	2150.9,2309.3 2078.3,2256.5 2168.1,2256.5 "/>
<g>
	<path class="st0" d="M3309.2,2405.6l-80.6-58.6l-80.6,58.6l30.8-94.8l-80.6-58.6h99.6l30.8-94.7l30.8,94.7h99.6l-80.6,58.6
		L3309.2,2405.6z M3123.9,2260.7l64.7,47l-24.7,76l64.7-47l64.7,47l-24.7-76l64.7-47h-80l-24.7-76l-24.7,76H3123.9z"/>
</g>
<g>
	<path class="st0" d="M1761.4,2407.4l-81.9-59.5l-81.9,59.5l31.3-96.3l-81.9-59.5h101.3l31.3-96.3l31.3,96.3h101.3l-81.9,59.5
		L1761.4,2407.4z M1577,2261.4l63.3,46l-24.2,74.5l63.3-46l63.3,46l-24.2-74.5l63.3-46h-78.3l-24.2-74.5l-24.2,74.5H1577z"/>
</g>
<g>
	<path class="st0" d="M2631.6,2405.6l30.8-94.8l-80.6-58.6h99.6l30.8-94.7l30.8,94.7h99.6l-80.6,58.6l30.8,94.8l-80.6-58.6
		L2631.6,2405.6z M2712.2,2336.7l64.7,47l-24.7-76l64.7-47h-79.9l-24.7-76l-24.7,76h-79.9l64.7,47l-24.7,76L2712.2,2336.7z"/>
</g>
<g>
	<path class="st0" d="M1245.1,2407.4l-81.9-59.5l-81.9,59.5l31.3-96.3l-81.9-59.5h101.3l31.3-96.3l31.3,96.3h101.3l-81.9,59.5
		L1245.1,2407.4z M1060.6,2261.4l63.3,46l-24.2,74.5l63.3-46l63.3,46l-24.2-74.5l63.3-46h-78.3l-24.2-74.5l-24.2,74.5H1060.6z"/>
</g>
<path class="st0" d="M1029.3,1999.6v-405.7c0,275.9,128.6,449.8,348.2,481.2h-272.7C1063,2075.1,1029.3,2041.4,1029.3,1999.6z"/>
<path class="st0" d="M1513.4,1792.9c-104.6,0-164.2-71.8-166.2-199c0-174.3,80.1-276.8,211.3-276.8c39,0,63.7,4.2,98.6,12.2
	l40.9,10.4v104.6C1697.9,1639.2,1615.9,1792.9,1513.4,1792.9z"/>
<path class="st0" d="M2513.9,2075.1H1512c80.6-13.2,159.3-53.6,224.9-124.2c28.9-32.8,43.2-24.5,51.3,2.1l24.7,82.2
	c4.2,14.3,14.3,22.4,28.6,22.4h149.8c16.4,0,26.5-10.2,26.5-26.6v-896.5c0-16.4-8.1-26.6-22.4-30.7l-213.3-49.2
	c-80.1-18.5-145.7-26.8-227.7-26.8c-330.4,0-525.3,211.3-525.3,566.1V639.7c0-41.6,33.7-75.3,75.5-75.3H2262
	c-16.4,0-26.6,10.2-26.6,26.6v1163C2235.4,1934.9,2338.9,2050.4,2513.9,2075.1z"/>
<path class="st0" d="M3143.3,2075.1h-501.9c22.6-3.9,45.5-10.6,65.8-19.6c14.3-6,18.5-18.5,12.2-34.9l-84-213.3
	c-6.2-14.3-18.5-18.5-34.9-14.3h-12.2c-18.5,0-26.8-16.4-26.8-39v-1163c0-16.4-10.2-26.6-26.6-26.6h356.7
	c-16.4,0-26.6,10.2-26.6,26.6v1163C2865,1934.7,2968.5,2050.1,3143.3,2075.1z"/>
<path class="st0" d="M3351.7,639.7v1359.9c0,7.2-0.9,14.1-3,20.5l-83.8-212.9c-6.2-14.3-18.5-18.5-34.9-14.3h-12.2
	c-18.5,0-26.8-16.4-26.8-39v-1163c0-16.4-10.2-26.6-26.6-26.6h112C3318,564.4,3351.7,598.1,3351.7,639.7z"/>
</svg>
