<?xml version="1.0" encoding="UTF-8" standalone="no"?>
<!-- Created with Inkscape (http://www.inkscape.org/) -->

<svg
   xmlns:dc="http://purl.org/dc/elements/1.1/"
   xmlns:cc="http://creativecommons.org/ns#"
   xmlns:rdf="http://www.w3.org/1999/02/22-rdf-syntax-ns#"
   xmlns:svg="http://www.w3.org/2000/svg"
   xmlns="http://www.w3.org/2000/svg"
   xmlns:sodipodi="http://sodipodi.sourceforge.net/DTD/sodipodi-0.dtd"
   xmlns:inkscape="http://www.inkscape.org/namespaces/inkscape"
   width="93.400002"
   height="35.66"
   id="svg12241"
   version="1.1"
   inkscape:version="0.48.1 "
   sodipodi:docname="Neues Dokument 7">
  <defs
     id="defs12243" />
  <sodipodi:namedview
     id="base"
     pagecolor="#ffffff"
     bordercolor="#666666"
     borderopacity="1.0"
     inkscape:pageopacity="0.0"
     inkscape:pageshadow="2"
     inkscape:zoom="9.7807803"
     inkscape:cx="46.700005"
     inkscape:cy="17.83"
     inkscape:document-units="px"
     inkscape:current-layer="layer1"
     showgrid="false"
     fit-margin-top="0"
     fit-margin-left="0"
     fit-margin-right="0"
     fit-margin-bottom="0"
     inkscape:window-width="1024"
     inkscape:window-height="648"
     inkscape:window-x="-4"
     inkscape:window-y="-4"
     inkscape:window-maximized="1" />
  <metadata
     id="metadata12246">
    <rdf:RDF>
      <cc:Work
         rdf:about="">
        <dc:format>image/svg+xml</dc:format>
        <dc:type
           rdf:resource="http://purl.org/dc/dcmitype/StillImage" />
        <dc:title></dc:title>
      </cc:Work>
    </rdf:RDF>
  </metadata>
  <g
     inkscape:label="Ebene 1"
     inkscape:groupmode="layer"
     id="layer1"
     transform="translate(-199.18884,-412.38427)">
    <path
       inkscape:connector-curvature="0"
       d="m 200.18697,447.04302 91.40375,0 0,-33.6575 -91.40375,0 0,33.6575 z"
       style="fill:#ffffff;fill-opacity:1;fill-rule:nonzero;stroke:none"
       id="path6956" />
    <path
       inkscape:connector-curvature="0"
       d="m 200.19447,447.04302 91.39625,0 0,-33.635 -91.39625,0 0,33.635 z"
       style="fill:#ffdd00;fill-opacity:1;fill-rule:nonzero;stroke:none"
       id="path6958" />
    <g
       id="g6960"
       transform="matrix(1.25,0,0,-1.25,218.99322,428.33802)">
      <path
         inkscape:connector-curvature="0"
         d="m 0,0 c -0.53,0.209 -1.139,0.339 -1.788,0.339 -1.281,0 -2.101,-0.808 -2.101,-2.125 0,-1.247 0.659,-2.026 1.919,-2.026 0.241,0 0.46,0.03 0.64,0.091 l 0,2.204 1.559,0 0,-3.262 c -0.66,-0.27 -1.499,-0.438 -2.368,-0.438 -2.189,0 -3.429,1.265 -3.429,3.312 0,2.145 1.47,3.631 3.869,3.631 0.679,0 1.368,-0.119 1.939,-0.289"
         style="fill:#231f20;fill-opacity:1;fill-rule:nonzero;stroke:none"
         id="path6962" />
    </g>
    <g
       id="g6964"
       transform="matrix(1.25,0,0,-1.25,226.06447,431.25677)">
      <path
         inkscape:connector-curvature="0"
         d="m 0,0 c 0,1.297 -0.66,2.305 -2.159,2.305 -1.539,0 -2.389,-1.127 -2.389,-2.654 0,-1.746 0.899,-2.535 2.528,-2.535 0.609,0 1.281,0.109 1.841,0.341 l -0.141,1.146 c -0.459,-0.21 -0.97,-0.31 -1.459,-0.31 -0.821,0 -1.219,0.379 -1.231,1.038 l 2.96,0 C -0.02,-0.431 0,-0.209 0,0 m -1.5,0.339 -1.498,0 c 0.039,0.509 0.358,0.859 0.799,0.859 0.44,0 0.719,-0.3 0.699,-0.859 m 2.43,-3.113 1.519,0 0,7.2849 -1.519,0 0,-7.2849 z"
         style="fill:#231f20;fill-opacity:1;fill-rule:nonzero;stroke:none"
         id="path6966" />
    </g>
    <g
       id="g6968"
       transform="matrix(1.25,0,0,-1.25,236.47197,431.29427)">
      <path
         inkscape:connector-curvature="0"
         d="m 0,0 c 0,1.437 -0.629,2.324 -1.818,2.324 -0.661,0 -1.169,-0.288 -1.41,-0.736 l -0.01,0.009 c 0.039,0.26 0.069,0.678 0.069,0.987 l 0,1.956 -1.518,0 0,-7.144 c 0.589,-0.161 1.198,-0.249 1.939,-0.249 C -0.959,-2.853 0,-1.626 0,0 m -1.608,-0.15 c 0,-1.107 -0.441,-1.487 -1.03,-1.487 -0.23,0 -0.389,0.021 -0.531,0.06 l 0,1.248 c 0,0.799 0.361,1.388 0.881,1.388 0.459,0 0.68,-0.38 0.68,-1.209"
         style="fill:#231f20;fill-opacity:1;fill-rule:nonzero;stroke:none"
         id="path6970" />
    </g>
    <g
       id="g6972"
       transform="matrix(1.25,0,0,-1.25,242.91822,431.25677)">
      <path
         inkscape:connector-curvature="0"
         d="m 0,0 c 0,1.297 -0.659,2.305 -2.159,2.305 -1.539,0 -2.389,-1.127 -2.389,-2.654 0,-1.746 0.899,-2.535 2.529,-2.535 0.609,0 1.281,0.109 1.84,0.341 l -0.141,1.146 c -0.459,-0.21 -0.968,-0.31 -1.459,-0.31 -0.82,0 -1.219,0.379 -1.228,1.038 l 2.958,0 C -0.02,-0.431 0,-0.209 0,0 m -1.499,0.339 -1.499,0 c 0.04,0.509 0.359,0.859 0.8,0.859 0.44,0 0.72,-0.3 0.699,-0.859"
         style="fill:#231f20;fill-opacity:1;fill-rule:nonzero;stroke:none"
         id="path6974" />
    </g>
    <g
       id="g6976"
       transform="matrix(1.25,0,0,-1.25,248.70072,434.87302)">
      <path
         inkscape:connector-curvature="0"
         d="m 0,0 c -0.47,0 -0.951,0.049 -1.379,0.149 l 0.08,1.438 c 0.379,-0.141 0.929,-0.25 1.418,-0.25 0.57,0 0.98,0.239 0.98,0.716 0,1.149 -2.689,0.56 -2.689,2.815 0,1.267 0.99,2.106 2.679,2.106 0.361,0 0.81,-0.041 1.229,-0.12 L 2.229,5.506 C 1.849,5.617 1.431,5.686 1.031,5.686 0.38,5.686 0.08,5.407 0.08,5.028 0.08,3.981 2.768,4.379 2.768,2.274 2.768,0.967 1.72,0 0,0"
         style="fill:#231f20;fill-opacity:1;fill-rule:nonzero;stroke:none"
         id="path6978" />
    </g>
    <g
       id="g6980"
       transform="matrix(1.25,0,0,-1.25,258.63447,431.25677)">
      <path
         inkscape:connector-curvature="0"
         d="m 0,0 c 0,1.297 -0.659,2.305 -2.158,2.305 -1.541,0 -2.389,-1.127 -2.389,-2.654 0,-1.746 0.898,-2.535 2.529,-2.535 0.61,0 1.28,0.109 1.838,0.341 l -0.14,1.146 c -0.459,-0.21 -0.97,-0.31 -1.459,-0.31 -0.82,0 -1.219,0.379 -1.229,1.038 l 2.959,0 C -0.02,-0.431 0,-0.209 0,0 m -1.5,0.339 -1.498,0 c 0.04,0.509 0.359,0.859 0.8,0.859 0.438,0 0.719,-0.3 0.698,-0.859 m 2.43,1.847 1.519,0 0,-4.959 -1.519,0 0,4.959 z m 0.759,0.518 c -0.509,0 -0.928,0.399 -0.928,0.898 0,0.499 0.419,0.9 0.928,0.9 0.519,0 0.94,-0.401 0.94,-0.9 0,-0.489 -0.421,-0.898 -0.94,-0.898"
         style="fill:#231f20;fill-opacity:1;fill-rule:nonzero;stroke:none"
         id="path6982" />
    </g>
    <g
       id="g6984"
       transform="matrix(1.25,0,0,-1.25,265.38072,434.86052)">
      <path
         inkscape:connector-curvature="0"
         d="m 0,0 c -1.15,0 -1.52,0.38 -1.52,1.596 l 0,2.305 -0.749,0 0,1.168 0.749,0 0,1.464 1.52,0.41 0,-1.874 1.079,0 0,-1.168 -1.069,0 0,-1.956 c 0,-0.509 0.13,-0.678 0.509,-0.678 0.181,0 0.401,0.041 0.56,0.08 l 0,-1.208 C 0.749,0.059 0.36,0 0,0"
         style="fill:#231f20;fill-opacity:1;fill-rule:nonzero;stroke:none"
         id="path6986" />
    </g>
    <g
       id="g6988"
       transform="matrix(1.25,0,0,-1.25,272.98697,431.25677)">
      <path
         inkscape:connector-curvature="0"
         d="m 0,0 c 0,1.297 -0.661,2.305 -2.159,2.305 -1.54,0 -2.388,-1.127 -2.388,-2.654 0,-1.746 0.898,-2.535 2.528,-2.535 0.61,0 1.278,0.109 1.838,0.341 l -0.14,1.146 c -0.458,-0.21 -0.969,-0.31 -1.457,-0.31 -0.822,0 -1.22,0.379 -1.231,1.038 l 2.96,0 C -0.02,-0.431 0,-0.209 0,0 m -1.317,0.339 -1.5,0 c 0.039,0.509 0.362,0.859 0.8,0.859 0.441,0 0.72,-0.3 0.7,-0.859"
         style="fill:#231f20;fill-opacity:1;fill-rule:nonzero;stroke:none"
         id="path6990" />
    </g>
    <g
       id="g6992"
       transform="matrix(1.25,0,0,-1.25,277.86072,434.72427)">
      <path
         inkscape:connector-curvature="0"
         d="m 0,0 0,3.155 c 0,0.4 -0.112,0.637 -0.463,0.637 -0.539,0 -0.989,-0.658 -0.989,-1.387 l 0,-2.405 -1.517,0 0,4.96 1.418,0 c 0,-0.18 -0.01,-0.54 -0.059,-0.778 l 0.01,0 c 0.31,0.508 0.86,0.886 1.65,0.886 1.108,0 1.469,-0.707 1.469,-1.565 L 1.519,0"
         style="fill:#231f20;fill-opacity:1;fill-rule:nonzero;stroke:none"
         id="path6994" />
    </g>
  </g>
</svg>
