<?xml version="1.0" encoding="utf-8"?>
<!-- Generator: Adobe Illustrator 25.2.0, SVG Export Plug-In . SVG Version: 6.00 Build 0)  -->
<svg version="1.1" id="Layer_1" xmlns="http://www.w3.org/2000/svg" xmlns:xlink="http://www.w3.org/1999/xlink" x="0px" y="0px"
	 viewBox="0 0 4535.4 3401.6" style="enable-background:new 0 0 4535.4 3401.6;" xml:space="preserve">
<style type="text/css">
	.st0{fill:#F2959C;}
</style>
<path class="st0" d="M1745.1,1655.9c-57.4,1.7-90.2,14.8-125.4,51.6c-9.8,10.6-13.1,8.1-20.5-2.5l-21.3-32.7
	c-2.5-5-6.5-7.4-12.3-7.4h-58.2c-6.5,0-10.6,4.1-10.6,10.6v380.9c0,6.5,4.1,10.7,10.6,10.7h109c6.5,0,10.6-4.1,10.6-10.7v-66.3
	c0-163.8,27.8-214.7,118-218.7c7.3,0,10.6-3.3,10.6-10.7v-94.2C1755.7,1660,1751.7,1655.9,1745.1,1655.9z"/>
<path class="st0" d="M2138.3,1956.5c-1.7-6.5-5.8-8.9-12.4-7.4l-49.1,10.7c-11.4,2.5-35.2,5.7-52.4,5.7c-38.5,0-59-12.3-74.6-40.9
	l95.9-13.9c94.1-13.1,140.1-50.8,140.1-116.4c0-84.4-63.1-138.4-165.5-138.4c-128.6,0-203.1,81-203.1,210.5
	c0,128.6,72.9,209.7,207.3,209.7c21.3,0,49.1-2.4,77.8-8.9l50.7-12.3c6.6-1.7,9.9-5.8,8.2-13.2L2138.3,1956.5z M2015.4,1766.5
	c32.7,0,49.1,9.9,49.1,29.5c0,18.1-12.3,29.5-37.7,32l-85.2,13.1C1944.1,1789.5,1980.2,1766.5,2015.4,1766.5z"/>
<path class="st0" d="M2637.1,1665h-112.2c-5.8,0-9.9,2.4-12.4,8.1L2488,1742c-22.1,58.9-38.5,122.8-45.1,172
	c-1.7,10.7-13.1,10.7-14.8,0c-8.2-49.1-24.5-112.2-45.8-172l-24.6-68.9c-2.5-5.7-6.5-8.1-12.3-8.1h-112.2c-8.2,0-11.5,4.9-8.2,12.3
	l56.5,149.9c30.3,82.7,59.7,169.6,77,231c1.7,5.7,5.7,9,11.4,9h131.1c5.7,0,9.9-3.3,11.4-9c17.2-62.2,46.7-149.9,77-231l55.8-149.9
	C2648.5,1669.9,2645.3,1665,2637.1,1665z"/>
<path class="st0" d="M2873.8,2056.5c0,6.6-4.1,10.7-10.7,10.7H2755c-6.6,0-10.7-4.1-10.7-10.7v-277.7h-42.6
	c-6.6,0-10.6-4.1-10.6-10.7v-92.6c0-6.6,4.1-10.6,10.6-10.6h161.4c6.6,0,10.7,4.1,10.7,10.6V2056.5z"/>
<path class="st0" d="M3269.4,1956.5c-1.6-6.5-5.7-8.9-12.3-7.4l-49.1,10.7c-11.4,2.5-35.2,5.7-52.5,5.7c-38.4,0-58.9-12.3-74.5-40.9
	l95.8-13.9c94.2-13.1,140.2-50.8,140.2-116.4c0-84.4-63.1-138.4-165.5-138.4c-128.6,0-203.1,81-203.1,210.5
	c0,128.6,72.8,209.7,207.2,209.7c21.3,0,49.2-2.4,77.8-8.9l50.8-12.3c6.5-1.7,9.9-5.8,8.2-13.2L3269.4,1956.5z M3146.5,1766.5
	c32.7,0,49.1,9.9,49.1,29.5c0,18.1-12.3,29.5-37.7,32l-85.2,13.1C3075.3,1789.5,3111.3,1766.5,3146.5,1766.5z"/>
<path class="st0" d="M3976.3,1665h-109c-6.5,0-10.6,3.2-12.3,8.9l-18.8,78.7c-17.2,70.4-25.4,109.8-34.4,165.5
	c-1.7,10.6-12.4,10.6-14.8,0c-12.3-55.7-31.2-122.1-49.1-187.6l-15.6-56.5c-1.7-5.7-5.7-8.9-11.4-8.9H3638c-6.5,0-10.7,3.2-12.3,8.9
	l-14.8,56.5c-18.1,68-36.9,131.9-49.1,187.6c-2.5,10.6-13.9,10.6-15.6,0c-9.9-55.7-18.9-99.1-34.4-165.5l-18.9-78.7
	c-1.6-5.7-5.7-8.9-12.3-8.9h-108.9c-7.4,0-10.7,4.9-9,12.3l56.5,202.3c23,84.4,33.6,121.2,46.7,178.6c1.7,5.7,5.7,9,12.3,9h134.3
	c6.6,0,10.7-3.3,12.4-9c4.9-23,9.8-43.4,17.1-70.4l9-33.6c4.1-16.4,12.3-54.1,17.2-75.4c2.4-10.6,8.9-10.6,11.4,0
	c4.9,20.5,13.1,56.5,18,75.4l9,33.6l17.2,70.4c1.6,5.7,5.7,9,12.3,9h134.3c6.5,0,10.6-3.3,12.3-9c13.1-57.4,23.8-95.8,46.7-178.6
	l55.7-202.3C3987,1669.9,3983.7,1665,3976.3,1665z"/>
<polygon class="st0" points="2782.4,1342.2 2812.9,1436.2 2911.9,1436.2 2831.8,1494.4 2862.4,1588.5 2782.4,1530.3 2702.3,1588.5 
	2732.9,1494.4 2652.8,1436.2 2751.8,1436.2 "/>
<g>
	<path class="st0" d="M4009.1,1600.6l-88.8-64.5l-88.8,64.5l33.9-104.4l-88.8-64.5h109.8l33.9-104.4l33.9,104.4H4064l-88.8,64.5
		L4009.1,1600.6z M3805,1440.9l71.3,51.8l-27.2,83.8l71.3-51.8l71.3,51.8l-27.2-83.8l71.3-51.8h-88.1l-27.2-83.8l-27.2,83.8H3805z"
		/>
</g>
<g>
	<path class="st0" d="M2303.7,1602.6l-90.3-65.6l-90.3,65.6l34.5-106.1l-90.3-65.6h111.6l34.5-106.1l34.5,106.1h111.6l-90.3,65.6
		L2303.7,1602.6z M2100.5,1441.6l69.8,50.7l-26.7,82l69.8-50.7l69.8,50.7l-26.7-82l69.8-50.7H2240l-26.7-82l-26.7,82H2100.5z"/>
</g>
<g>
	<path class="st0" d="M3262.5,1600.6l33.9-104.4l-88.8-64.5h109.8l33.9-104.4l33.9,104.4H3495l-88.8,64.5l33.9,104.4l-88.8-64.5
		L3262.5,1600.6z M3351.3,1524.6l71.3,51.8l-27.2-83.8l71.3-51.8h-88.1l-27.2-83.8l-27.2,83.8H3236l71.3,51.8l-27.2,83.8
		L3351.3,1524.6z"/>
</g>
<g>
	<path class="st0" d="M1734.7,1602.6l-90.3-65.6l-90.3,65.6l34.5-106.1l-90.3-65.6h111.6l34.5-106.1l34.5,106.1h111.6l-90.3,65.6
		L1734.7,1602.6z M1531.5,1441.6l69.8,50.7l-26.7,82l69.8-50.7l69.8,50.7l-26.7-82l69.8-50.7h-86.3l-26.7-82l-26.7,82H1531.5z"/>
</g>
<path class="st0" d="M472.3,2037v-162c0,110.2,51.4,179.6,139,192.2H502.5C485.8,2067.2,472.3,2053.7,472.3,2037z"/>
<path class="st0" d="M665.7,1954.5c-41.8,0-65.6-28.7-66.4-79.5c0-69.6,32-110.6,84.4-110.6c15.6,0,25.4,1.7,39.4,4.9l16.3,4.1v41.8
	C739.4,1893.1,706.6,1954.5,665.7,1954.5z"/>
<path class="st0" d="M1065.2,2067.2H665.1c32.2-5.3,63.6-21.4,89.8-49.6c11.5-13.1,17.2-9.8,20.5,0.8l9.9,32.8
	c1.7,5.7,5.7,8.9,11.4,8.9h59.8c6.5,0,10.6-4.1,10.6-10.6v-358c0-6.5-3.2-10.6-8.9-12.3l-85.2-19.6c-32-7.4-58.2-10.7-90.9-10.7
	c-131.9,0-209.8,84.4-209.8,226.1v-381.1c0-16.6,13.5-30.1,30.2-30.1h462.1c-6.5,0-10.6,4.1-10.6,10.6v464.4
	C954,2011.2,995.3,2057.3,1065.2,2067.2z"/>
<path class="st0" d="M1316.6,2067.2h-200.5c9-1.6,18.2-4.2,26.3-7.8c5.7-2.4,7.4-7.4,4.9-13.9l-33.6-85.2c-2.5-5.7-7.4-7.4-13.9-5.7
	h-4.9c-7.4,0-10.7-6.5-10.7-15.6v-464.4c0-6.5-4.1-10.6-10.6-10.6h142.5c-6.5,0-10.6,4.1-10.6,10.6v464.4
	C1205.5,2011.1,1246.8,2057.2,1316.6,2067.2z"/>
<path class="st0" d="M1399.8,1493.9V2037c0,2.9-0.4,5.6-1.2,8.2l-33.5-85c-2.5-5.7-7.4-7.4-13.9-5.7h-4.9c-7.4,0-10.7-6.5-10.7-15.6
	v-464.4c0-6.5-4.1-10.6-10.6-10.6h44.7C1386.4,1463.9,1399.8,1477.3,1399.8,1493.9z"/>
</svg>
